<svg width="1200" height="800" viewBox="0 0 1200 800" fill="none" xmlns="http://www.w3.org/2000/svg">
  <rect width="1200" height="800" rx="48" fill="#0F172A"/>
  <rect x="36" y="36" width="1128" height="728" rx="36" fill="url(#bg)"/>
  <path d="M120 150H1080" stroke="#334155" stroke-width="2"/>
  <path d="M120 650H1080" stroke="#334155" stroke-width="2"/>
  <rect x="120" y="190" width="220" height="420" rx="28" fill="#111827" stroke="#F59E0B" stroke-opacity="0.35" stroke-width="2"/>
  <rect x="490" y="120" width="220" height="560" rx="28" fill="#111827" stroke="#FBBF24" stroke-opacity="0.35" stroke-width="2"/>
  <rect x="860" y="220" width="220" height="360" rx="28" fill="#111827" stroke="#FCD34D" stroke-opacity="0.35" stroke-width="2"/>
  <text x="160" y="250" fill="#FDE68A" font-family="Arial, sans-serif" font-size="26" font-weight="700">Capture</text>
  <text x="530" y="180" fill="#FDE68A" font-family="Arial, sans-serif" font-size="26" font-weight="700">Reconcile</text>
  <text x="905" y="280" fill="#FDE68A" font-family="Arial, sans-serif" font-size="26" font-weight="700">Submit</text>
  <rect x="160" y="300" width="140" height="20" rx="10" fill="#1F2937"/>
  <rect x="160" y="340" width="110" height="20" rx="10" fill="#1F2937"/>
  <rect x="160" y="380" width="150" height="20" rx="10" fill="#1F2937"/>
  <rect x="530" y="240" width="140" height="20" rx="10" fill="#1F2937"/>
  <rect x="530" y="280" width="120" height="20" rx="10" fill="#1F2937"/>
  <rect x="530" y="320" width="150" height="20" rx="10" fill="#1F2937"/>
  <rect x="530" y="430" width="140" height="20" rx="10" fill="#1F2937"/>
  <rect x="530" y="470" width="120" height="20" rx="10" fill="#1F2937"/>
  <rect x="530" y="510" width="150" height="20" rx="10" fill="#1F2937"/>
  <rect x="900" y="340" width="140" height="20" rx="10" fill="#1F2937"/>
  <rect x="900" y="380" width="120" height="20" rx="10" fill="#1F2937"/>
  <path d="M340 400C410 400 420 400 490 400" stroke="#F59E0B" stroke-width="8" stroke-linecap="round"/>
  <path d="M710 400C780 400 790 400 860 400" stroke="#FBBF24" stroke-width="8" stroke-linecap="round"/>
  <circle cx="490" cy="400" r="18" fill="#F59E0B"/>
  <circle cx="860" cy="400" r="18" fill="#FBBF24"/>
  <rect x="92" y="88" width="252" height="52" rx="18" fill="#0B1220" stroke="#F59E0B" stroke-opacity="0.25"/>
  <text x="122" y="121" fill="#F8FAFC" font-family="Arial, sans-serif" font-size="24" font-weight="700">Millions of daily events</text>
  <defs>
    <linearGradient id="bg" x1="84" y1="72" x2="1085" y2="717" gradientUnits="userSpaceOnUse">
      <stop stop-color="#111827"/>
      <stop offset="1" stop-color="#1E293B"/>
    </linearGradient>
  </defs>
</svg>
