<svg xmlns="http://www.w3.org/2000/svg" viewBox="0 0 64 64" role="img" aria-label="RM favicon">
  <defs>
    <linearGradient id="bg" x1="10" y1="6" x2="54" y2="58" gradientUnits="userSpaceOnUse">
      <stop offset="0" stop-color="#2f6fa3" />
      <stop offset="1" stop-color="#19252f" />
    </linearGradient>
  </defs>
  <rect width="64" height="64" rx="18" fill="url(#bg)" />
  <circle cx="32" cy="32" r="23" fill="none" stroke="#ffffff" stroke-opacity=".16" stroke-width="2" />
  <path d="M18 43V21h8.9c5.2 0 8 2.5 8 6.6 0 3.2-1.8 5.4-4.8 6.2L41 43h-6.8l-9.1-8.8H23V43h-5zm5-12h3.2c2.8 0 4.1-1.1 4.1-3.3s-1.3-3.2-4.1-3.2H23v6.5z" fill="#ffffff" />
  <path d="M43 21h4.3l4.7 13.1L56.5 21H61v22h-4.2V28.9L52.8 43h-4l-4.1-14.1V43H40V21h3z" fill="#ffffff" opacity=".96" />
</svg>
